<svg width="175.938" height="175.938" xmlns="http://www.w3.org/2000/svg">

 <g>
  <title>background</title>
  <rect fill="none" id="canvas_background" height="427.48" width="427.48" y="-1" x="-1"/>
 </g>
 <g>
  <title>Layer 1</title>
  <path fill="#83b817" id="svg_1" d="m157.586,32.771c0.189,-4.432 -1.308,-9.012 -3.583,-11.348c2.154,-2.932 3.391,-7.297 1.992,-10.67c-0.889,-2.143 -3.155,-4.703 -8.9,-4.703c-0.453,0 -0.928,0.016 -1.411,0.045c-1.415,-3.558 -4.931,-6.095 -8.665,-6.095c-1.929,0 -5.444,0.695 -8.307,5.125c-0.35,-0.063 -0.739,-0.09 -1.163,-0.09c-2.72,0 -7.817,1.516 -9.897,5.574c-1.128,2.205 -1.696,5.875 1.699,11.066c-1.793,2.744 -7.083,11.647 -12.359,28.311c-2.216,6.988 -9.731,23.252 -31.642,23.252c-16.402,0 -36.853,-9.203 -60.778,-27.353c-0.269,-0.207 -0.594,-0.316 -0.932,-0.316c-0.125,0 -0.245,0.018 -0.364,0.047c-0.453,0.105 -0.829,0.414 -1.03,0.828c-0.223,0.461 -5.026,11.104 12.809,29.277c-2.899,0.613 -5.715,2.115 -6.686,4.955c-1.223,3.566 0.93,7.781 6.394,12.52c-1.342,0.602 -2.552,1.492 -3.125,3.014c-1.057,2.811 0.355,6.904 4.726,13.678c6.795,10.551 22.351,34.639 59.174,36.621c-0.013,0.146 -0.043,0.289 -0.043,0.434l0,18.168l-6.382,0c-2.985,0 -5.41,2.426 -5.41,5.414c0,2.994 2.425,5.414 5.41,5.414l32.863,0c2.987,0 5.41,-2.42 5.41,-5.414c0,-2.988 -2.423,-5.414 -5.41,-5.414l-15.655,0l0,-18.168c0,-0.158 -0.034,-0.313 -0.052,-0.459c15.081,-0.906 27.998,-5.324 37.612,-12.932c11.14,-8.811 17.029,-21.27 17.029,-36.051c-0.17,-8.383 -1.299,-13.791 -2.39,-19.031c-1.129,-5.422 -2.199,-10.545 -2.284,-18.867c-0.082,-3.645 1.087,-8.598 3.874,-11.445c1.428,-1.463 3.151,-2.199 5.115,-2.199c2.015,0 4.318,0.758 6.843,2.248c0.239,0.146 0.514,0.223 0.788,0.223c0.23,0 0.461,-0.059 0.676,-0.158c0.465,-0.223 0.79,-0.67 0.859,-1.184c0.039,-0.326 0.941,-7.748 -6.805,-14.317z"/>
  <g id="svg_2"/>
  <g id="svg_3"/>
  <g id="svg_4"/>
  <g id="svg_5"/>
  <g id="svg_6"/>
  <g id="svg_7"/>
  <g id="svg_8"/>
  <g id="svg_9"/>
  <g id="svg_10"/>
  <g id="svg_11"/>
  <g id="svg_12"/>
  <g id="svg_13"/>
  <g id="svg_14"/>
  <g id="svg_15"/>
  <g id="svg_16"/>
 </g>
</svg>