<!-- Generated by IcoMoon.io -->
<svg version="1.1" xmlns="http://www.w3.org/2000/svg" width="1024" height="1024" viewBox="0 0 1024 1024">
<title></title>
<g id="icomoon-ignore">
</g>
<path fill="#fff" d="M695.343 576.012c0-39.758 25.315-72.914 40.697-89.395-8.024-56.495 11.61-109.757 55.026-134.556 19.022-10.867 36.841-16.312 53.676-16.312 18.476 0 35.77 6.559 52.167 19.712 9.204-1.959 22.245-3.987 36.857-3.987 19.576 0 41.962 3.642 61.653 15.967 30.518 19.1 33.778 40.96 22.904 58.603-6.599 10.704-20.168 21.019-34.644 21.019-9.386 0-19.155-4.341-27.642-15.731-1.732-2.324-3.44-4.562-5.138-6.748-0.374 0.461-0.759 0.911-1.16 1.349 39.435 75.83 56.666 172.401-1.447 205.6-16.13 9.219-33.913 13.581-52.163 13.581-43.959 0-90.555-25.333-122.966-69.129-1.004 0.136-2.044 0.218-3.101 0.269 12.786 33.58-16.842 50.292-37.407 50.292-20.605 0-37.313-14.326-37.313-50.533z"></path>
<path fill="#fff" d="M87.746 340.444c1.385-7.97 3.967-15.836 7.808-23.392 13.376-26.319 39.726-45.775 72.295-53.374l16.043-3.745 1.937-16.359c3.308-27.98 20.99-53.004 48.505-68.657 18.216-10.363 39.343-15.842 61.103-15.842 12.015 0 23.902 1.659 35.325 4.922l13.914 3.983 9.807-10.642c21.134-22.935 52.804-36.089 86.886-36.089 30.879 0 59.541 10.637 80.706 29.953l9.344 8.527 12.26-3.117c10.317-2.62 20.981-3.947 31.698-3.947 19.667 0 39.074 4.553 56.119 13.178 28.537 14.431 47.772 38.713 52.773 66.616l2.863 15.992 15.976 2.954c33.087 6.118 60.667 24.414 75.664 50.194 1.999 3.442 3.718 6.964 5.187 10.542-4.012 1.935-8.037 4.036-12.073 6.338-28.666 16.377-50.644 42.204-63.559 74.686-9.802 24.668-14.004 52.301-12.376 80.813-18.156 22.94-39.277 58.902-39.277 102.036 0 26.355 6.69 47.748 19.888 63.59 12.24 14.696 29.372 23.492 48.792 25.258-13.238 10.744-29.254 18.414-46.746 22.492v181.999c0 18.445-14.95 33.395-33.395 33.395-18.441 0-33.395-14.95-33.395-33.395v-140.189c-13.249 14.836-31.482 26.106-52.824 32.177-11.348 3.228-23.094 4.871-34.913 4.871-21.88 0-43.137-5.535-61.482-16.003l-12.318-7.031-11.951 7.634c-19.073 12.178-42.578 18.881-66.184 18.881-9.849 0-19.714-1.144-29.323-3.397-32.471-7.621-58.761-27.132-72.124-53.53l-6.864-13.563-1.886 0.091v170.061c0 18.441-14.952 33.395-33.395 33.395s-33.395-14.954-33.395-33.395v-178.406c-13.489-5.452-25.703-13.215-35.761-22.998-21.482-20.903-30.935-48.594-25.934-75.982l3.152-17.276-15.68-7.903c-28.637-14.429-47.946-38.671-52.98-66.5-4.938-27.324 4.6-54.994 26.173-75.917l13.202-12.804-9.273-15.88c-0.385-0.661-0.724-1.336-1.091-2.004-27.856 31.395-57.653 89.006-87.363 51.252-34.811-44.235 32.769-84.028 78.139-104.497z"></path>
</svg>
